P2
80 60
296
55 56 66 64 64 61 66 66 70 67 72 73 68 71 69 71 70 69 71 73 66 66 68 66 68 71 71 73 71 75 72 73 73 74 75 76 75 73 74 72 69 67 71 66 71 71 68 68 68 65 70 69 62 68 62 68 66 67 64 70 72 71 78 75 75 75 81 78 74 74 79 81 80 82 77 75 80 78 83 89 
56 56 59 59 60 60 67 68 65 68 68 71 68 70 71 70 71 70 74 76 72 67 67 69 69 71 67 72 67 63 64 65 69 67 68 71 71 68 69 67 65 61 67 71 70 71 73 70 67 68 71 71 64 64 63 65 62 61 65 67 75 72 83 88 95 89 88 76 75 72 76 82 79 79 78 78 74 80 88 90 
52 57 59 57 58 57 62 64 63 64 60 66 63 62 69 71 76 87 117 123 98 90 82 76 78 75 74 76 72 67 59 64 66 65 67 69 68 66 66 68 67 65 70 75 74 72 71 67 68 70 71 72 62 65 64 64 61 67 66 68 80 82 98 118 148 130 122 90 73 74 86 110 112 121 102 89 91 86 93 97 
52 47 51 54 54 53 55 60 58 60 57 57 57 59 64 67 73 97 134 108 92 82 83 80 78 74 74 70 73 66 58 60 60 64 65 66 66 62 63 64 59 62 72 70 73 71 72 69 69 69 67 68 61 64 61 60 59 62 68 72 83 83 95 107 134 126 128 121 105 103 100 120 114 120 126 106 90 95 94 104 
49 46 50 55 48 48 54 55 60 56 57 58 55 56 65 72 78 118 129 92 83 81 78 79 79 77 79 73 71 65 64 61 65 63 60 66 66 64 63 65 64 68 72 70 72 70 71 69 70 69 70 68 65 65 62 63 63 66 60 69 81 82 95 96 118 122 125 119 123 131 126 128 122 127 137 107 99 102 125 131 
51 49 50 48 47 51 51 58 56 55 52 53 54 54 61 65 81 125 117 85 78 75 77 77 73 74 74 75 74 71 59 59 62 63 67 62 63 64 62 59 63 67 74 72 71 70 68 71 68 70 67 68 65 62 61 61 61 61 63 73 83 85 98 94 102 105 119 119 122 125 136 115 107 112 104 98 110 122 176 133 
57 54 52 52 49 50 56 59 59 56 54 55 55 56 60 72 85 117 94 80 75 73 72 72 74 73 74 73 73 72 63 59 67 68 67 61 63 70 66 64 63 72 73 70 70 72 72 73 73 71 72 69 66 65 59 66 63 65 67 79 86 84 98 91 100 103 114 119 123 128 133 117 106 101 97 97 110 117 136 127 
52 52 56 55 56 53 50 58 56 60 54 57 54 55 58 63 66 84 69 66 62 67 69 69 72 73 69 68 69 69 62 59 64 62 62 67 66 64 59 62 63 69 76 68 70 67 70 69 67 67 71 66 65 65 65 61 60 61 65 78 81 84 92 85 94 97 105 114 115 124 127 124 108 95 97 97 113 108 115 116 
51 50 53 56 55 54 53 53 60 54 54 54 57 56 59 59 65 77 67 64 67 65 67 69 67 70 70 71 71 66 66 59 62 64 66 65 66 64 60 62 64 71 73 70 71 69 64 68 68 67 68 69 64 62 59 60 61 62 69 76 81 85 92 83 93 95 102 107 121 123 127 127 120 100 100 97 105 100 102 110 
47 48 54 55 55 56 53 52 55 55 54 52 53 51 55 57 57 64 61 60 62 60 62 64 64 63 63 62 62 64 66 58 61 58 58 61 60 60 61 61 63 66 70 69 66 63 62 64 66 63 67 63 62 61 60 59 59 58 63 69 74 72 82 82 81 86 87 98 114 128 129 129 120 108 88 90 94 88 98 109 
45 44 54 55 56 56 57 55 55 57 54 52 54 59 61 55 54 63 59 62 62 61 59 61 59 57 56 55 62 59 58 57 56 57 61 63 63 63 63 59 61 64 61 60 62 61 63 62 62 58 61 60 61 62 63 59 59 58 63 63 65 70 73 70 79 75 81 83 103 126 131 127 128 123 98 91 89 85 90 96 
42 45 50 49 47 54 47 49 52 55 48 52 52 50 58 54 54 56 54 55 57 54 56 56 55 50 53 53 52 55 55 58 58 56 59 58 60 58 60 57 61 65 62 63 65 64 59 61 61 65 64 61 61 66 60 60 59 59 51 51 69 75 83 74 91 86 88 88 93 108 127 141 136 131 124 95 94 86 92 95 
45 48 44 49 46 47 52 52 51 50 53 52 54 54 59 53 55 56 57 56 57 60 63 62 65 61 63 61 63 65 65 58 57 57 60 60 60 59 58 58 64 68 68 69 69 67 65 66 68 68 75 63 58 62 59 59 55 59 48 34 68 79 92 84 89 95 91 91 96 99 131 155 146 144 137 107 95 93 88 95 
48 44 44 44 50 50 49 51 50 52 51 52 51 57 54 53 54 63 65 58 59 66 65 62 65 61 58 60 63 65 67 56 57 56 58 57 56 58 58 59 62 67 66 66 71 72 68 68 67 67 70 60 59 62 58 58 58 62 47 31 56 71 82 85 83 88 95 87 91 96 132 156 147 134 129 115 94 88 91 91 
50 47 44 48 49 49 49 49 47 52 51 50 54 58 51 54 54 59 56 55 59 62 62 63 64 62 61 62 61 62 61 57 55 54 57 57 57 57 53 57 64 69 69 66 69 68 68 65 70 66 70 59 57 57 61 59 60 60 43 16 43 61 77 81 87 87 92 91 88 92 112 144 133 123 118 114 103 95 91 98 
47 49 50 48 52 50 50 47 49 48 44 50 48 51 47 50 53 55 49 54 54 56 56 54 55 62 63 58 62 64 59 59 53 55 52 57 56 56 55 58 58 65 71 71 69 69 61 65 69 68 71 60 60 61 60 59 56 58 62 22 30 58 76 75 87 85 93 85 88 90 93 113 112 116 114 120 114 98 94 98 
53 47 47 45 46 46 47 51 48 51 48 50 48 48 48 49 46 51 48 54 53 57 54 54 57 63 61 61 66 64 66 62 55 57 61 62 57 58 59 60 63 71 69 67 67 67 63 67 69 69 67 62 61 62 57 55 60 61 68 39 16 43 74 76 86 85 86 88 82 91 95 106 108 112 111 111 112 104 96 100 
54 53 46 43 44 48 47 46 52 49 45 47 51 48 49 51 47 50 47 51 54 57 54 57 57 58 59 62 58 61 64 61 51 52 56 54 56 53 56 61 56 61 62 63 62 62 61 63 63 57 61 57 57 57 53 56 57 52 59 45 13 29 66 66 79 84 78 81 81 83 80 84 93 105 105 106 102 106 98 99 
52 48 52 46 46 45 47 48 48 51 42 50 50 47 54 53 56 51 51 50 55 58 56 57 57 55 54 54 56 54 55 56 54 58 57 54 55 55 56 55 52 59 59 57 59 60 63 60 61 59 62 59 63 59 56 56 56 56 47 59 22 20 62 73 77 83 79 77 85 83 87 89 89 106 109 104 104 107 98 97 
50 47 49 47 45 45 45 49 44 46 45 46 43 47 51 48 49 50 50 49 47 54 52 54 55 57 57 54 64 61 62 58 54 53 55 53 56 55 50 59 56 55 63 67 67 65 67 70 66 66 65 56 56 55 54 55 53 54 35 61 39 18 54 76 85 80 81 82 90 88 89 89 97 97 104 100 102 103 98 97 
54 50 49 53 48 44 47 50 51 49 45 48 50 48 49 49 48 47 49 52 52 51 55 54 53 57 58 59 66 63 68 65 59 53 53 54 59 53 54 54 59 61 69 70 71 70 69 69 70 69 61 59 57 56 56 57 56 49 39 55 58 9 32 79 83 83 85 87 91 94 88 98 99 100 98 100 103 101 97 94 
52 51 49 49 51 43 45 48 46 48 48 47 49 45 46 50 44 46 47 48 51 48 48 55 55 58 60 57 60 63 65 64 53 56 52 52 54 52 51 53 56 57 61 67 66 67 63 68 71 68 63 59 56 55 53 54 53 50 32 46 73 16 15 64 85 78 90 94 93 94 90 95 101 106 98 100 101 97 91 97 
50 51 52 49 46 47 45 49 55 55 50 47 53 52 51 50 49 48 49 51 51 50 49 54 56 56 61 60 65 66 64 63 56 54 50 55 56 59 53 56 57 64 60 65 68 70 68 71 70 71 62 57 57 61 59 59 55 61 38 39 63 34 13 42 83 88 101 107 105 98 92 103 108 113 108 97 99 102 92 90 
50 49 48 45 48 49 47 44 51 62 47 48 50 55 58 48 48 50 47 51 56 51 50 54 54 52 58 58 63 66 61 64 55 51 55 52 54 52 57 55 52 58 52 55 64 72 68 72 71 68 62 53 52 58 53 56 60 85 49 41 58 56 19 25 80 89 99 113 115 90 98 105 112 114 109 101 95 91 93 92 
50 47 50 54 55 55 50 48 52 66 53 48 48 56 54 48 45 47 48 48 50 50 51 56 54 50 56 52 56 56 55 58 50 49 52 51 53 50 52 51 50 53 55 47 55 70 75 76 80 80 66 55 57 56 51 55 59 74 58 39 57 79 37 20 70 94 98 117 115 93 103 104 111 107 113 107 94 91 93 96 
51 47 52 56 58 55 53 45 48 65 45 48 47 48 46 46 45 46 44 44 45 47 45 50 46 42 47 44 51 53 49 52 47 50 49 46 52 47 51 51 47 50 50 47 50 71 75 84 87 83 61 54 57 58 53 54 61 87 86 60 65 89 67 45 71 96 101 109 115 98 101 109 107 106 104 105 103 88 101 103 
47 46 49 57 53 53 56 47 45 56 56 47 45 45 50 51 45 46 47 45 47 52 50 52 53 50 48 56 51 57 56 60 56 60 64 62 67 59 65 62 57 57 62 65 60 81 109 124 129 123 73 56 54 56 56 57 70 119 123 111 112 106 112 108 103 102 113 114 113 111 107 116 112 111 105 108 107 89 102 113 
47 45 47 52 53 48 47 44 44 48 50 46 43 50 58 58 48 44 45 44 57 58 55 58 59 54 58 59 58 59 59 62 62 67 65 64 62 54 57 61 67 65 68 67 70 67 103 130 128 119 69 55 53 54 53 54 75 115 123 115 112 97 111 102 101 96 104 103 99 97 101 106 102 103 92 98 98 91 99 106 
46 45 46 47 48 51 48 45 40 45 43 43 44 52 60 53 46 46 46 58 61 62 63 60 59 63 61 59 62 63 60 62 65 65 62 54 48 57 61 65 67 65 65 64 70 67 70 90 107 94 62 54 55 56 53 60 72 88 86 79 64 59 73 53 38 43 71 74 74 74 80 75 78 75 77 74 77 76 91 98 
45 42 51 47 46 51 50 45 40 43 42 43 43 41 43 44 41 42 45 53 58 58 53 50 47 50 49 45 47 46 45 46 47 53 50 47 46 48 46 49 48 45 44 44 42 44 53 54 56 52 53 55 54 55 54 56 58 61 63 61 43 35 56 44 5 10 59 70 70 86 93 91 86 87 84 83 80 86 88 92 
43 43 49 47 44 45 47 43 44 45 43 45 44 44 43 47 43 44 49 43 51 48 43 46 45 40 42 43 45 44 43 44 45 45 48 49 50 47 47 48 47 46 45 43 46 45 53 53 55 51 52 50 55 58 55 58 66 70 73 75 45 32 51 63 12 6 48 78 79 93 110 108 99 98 86 83 83 94 88 89 
45 41 47 46 40 44 45 47 45 44 42 43 43 40 43 46 44 46 47 45 52 43 47 45 43 40 44 41 44 41 44 42 47 46 48 47 45 47 49 46 48 47 48 47 43 44 50 56 55 53 49 50 54 58 56 57 67 75 75 75 52 33 46 65 27 6 26 70 77 88 99 107 103 94 89 79 88 89 83 84 
45 41 49 46 44 45 47 46 43 44 46 42 42 42 45 42 46 46 45 47 48 47 42 43 43 45 44 43 44 44 43 45 47 46 49 46 50 46 46 44 45 44 48 49 47 47 50 53 55 51 49 50 53 58 54 59 71 73 73 75 75 32 40 57 52 10 16 59 75 89 92 87 80 85 87 73 82 83 78 81 
46 45 44 44 44 44 44 44 43 45 44 44 41 43 42 42 44 48 46 47 46 44 43 44 43 39 41 42 41 39 42 43 46 45 47 47 47 44 45 50 51 45 50 44 44 48 48 53 55 49 46 51 53 55 52 58 67 69 70 73 70 33 37 44 56 9 7 41 70 72 76 70 72 68 69 72 76 76 75 78 
46 46 47 48 45 47 45 47 44 47 44 46 45 40 42 41 47 45 48 53 46 45 43 41 43 43 40 40 39 43 43 45 50 48 48 47 47 46 48 47 46 46 52 45 43 45 48 51 54 48 46 53 53 58 59 58 60 61 62 60 60 37 27 28 55 18 0 19 54 62 63 64 64 63 61 68 69 70 74 79 
44 44 46 50 44 45 45 50 46 47 45 44 43 44 46 40 42 42 47 49 47 44 43 42 45 40 41 35 38 42 43 44 44 47 45 49 48 48 46 50 44 44 42 42 41 38 45 48 50 46 48 51 55 58 53 55 55 54 57 57 55 42 28 29 47 37 13 12 43 63 65 58 57 57 65 61 63 65 74 72 
45 45 48 44 45 44 47 51 48 44 49 44 49 46 43 44 47 48 45 47 50 47 44 46 43 42 42 42 46 45 44 44 44 48 48 49 47 49 46 48 48 48 44 41 43 44 45 48 52 47 49 53 53 55 53 56 58 58 58 58 57 50 35 28 47 47 13 5 35 58 62 60 62 63 67 66 65 68 72 80 
48 46 48 52 43 45 43 45 47 44 45 46 43 40 43 42 40 42 46 44 48 45 44 43 42 39 39 38 41 37 41 43 43 44 48 46 46 44 47 45 45 42 41 41 41 44 40 47 47 46 44 53 53 58 56 57 57 59 58 55 55 51 42 31 41 52 31 24 42 56 59 57 63 62 68 67 70 69 73 86 
50 45 46 51 43 42 41 51 48 42 45 48 44 44 47 42 41 45 48 43 44 46 46 42 44 42 40 38 45 43 43 44 44 46 47 49 49 47 51 47 45 47 43 44 46 47 45 47 52 45 47 53 56 59 60 63 67 66 70 71 71 67 73 63 61 59 61 60 62 67 69 79 86 91 86 79 88 89 91 85 
52 46 48 46 41 42 43 48 44 46 44 43 44 43 43 40 40 43 46 45 45 49 44 42 43 40 43 40 42 40 45 47 48 47 51 50 46 47 50 50 50 46 45 44 41 48 48 55 60 53 49 51 53 56 60 89 92 92 88 86 89 95 105 87 80 77 95 93 89 84 77 86 108 101 92 85 94 103 94 93 
55 53 50 48 42 45 46 49 49 48 46 44 44 43 43 44 45 47 47 49 47 45 44 44 45 45 44 44 45 43 45 44 47 47 51 52 49 50 52 55 56 55 54 54 52 49 53 64 73 53 50 51 57 58 71 94 98 100 93 90 99 96 110 99 87 92 108 104 100 100 86 90 104 107 102 91 95 96 97 96 
63 56 53 47 42 44 44 48 46 46 43 42 45 41 43 43 40 46 47 44 49 50 39 42 44 39 43 41 39 42 43 42 47 45 48 47 48 47 50 53 50 50 55 53 49 50 50 59 71 52 47 52 56 58 75 99 95 101 95 90 100 104 107 101 95 94 98 98 101 96 86 92 93 92 98 90 94 92 98 102 
77 61 60 47 42 43 44 49 46 45 45 44 44 36 41 44 46 47 45 47 48 48 46 43 46 43 44 42 45 44 47 44 48 48 49 48 54 50 48 46 51 52 53 51 53 51 55 59 69 51 48 53 56 60 75 94 97 100 97 90 94 98 101 99 96 92 99 97 99 94 97 91 97 105 102 96 101 97 102 108 
116 83 67 45 40 46 44 46 48 43 43 44 46 40 44 42 45 47 49 43 44 42 41 41 43 41 42 40 44 40 44 44 47 45 50 47 51 48 46 46 48 48 45 42 50 48 47 57 65 47 51 50 53 61 90 94 102 104 100 91 97 102 106 102 103 93 95 98 101 105 108 94 102 111 138 142 122 102 117 168 
131 118 74 52 43 46 44 49 46 45 48 50 43 43 42 44 49 50 43 40 48 47 46 42 44 42 41 42 44 45 46 46 47 48 54 49 50 45 45 48 48 47 45 46 44 45 44 50 55 46 51 51 57 64 93 103 109 123 122 104 101 129 132 133 150 117 116 145 183 211 172 116 120 194 234 202 166 123 128 190 
181 201 133 56 41 43 43 48 45 38 44 46 45 37 41 44 39 41 42 46 45 45 42 41 39 41 42 41 41 42 45 46 48 48 48 47 48 48 50 44 45 45 43 43 41 44 44 44 44 44 46 53 56 69 150 201 185 160 183 150 153 223 217 220 213 154 130 168 211 211 176 154 116 180 232 210 201 117 116 166 
235 296 168 96 57 43 45 49 47 45 48 45 42 41 44 43 43 44 43 46 46 48 44 42 44 43 43 46 43 42 47 50 49 50 52 48 50 49 48 48 49 47 46 44 45 42 39 45 46 45 47 54 61 78 150 196 137 161 200 162 130 216 225 226 206 161 114 152 200 210 155 125 92 122 141 144 134 94 90 100 
253 268 152 118 63 46 46 45 43 49 46 44 50 43 40 40 44 46 44 45 46 44 45 41 43 42 42 43 40 43 45 46 45 46 49 51 53 50 47 52 49 41 45 43 43 43 42 40 42 45 51 55 57 75 117 145 124 149 136 118 93 106 106 106 109 92 82 83 85 78 75 70 68 77 90 85 88 84 92 93 
267 202 123 115 80 48 49 44 48 48 49 47 48 42 45 42 44 45 45 48 43 47 45 42 44 43 42 43 45 45 44 49 49 48 49 52 52 51 49 50 49 45 44 46 46 44 46 43 42 44 52 58 59 66 77 75 73 73 70 67 66 69 77 69 66 63 62 62 65 62 64 62 60 70 83 90 103 103 98 95 
98 92 75 71 65 41 42 45 47 44 47 46 46 43 44 43 47 47 45 42 44 47 45 41 42 40 43 42 44 43 47 43 47 48 48 45 51 52 49 48 48 46 46 44 44 48 45 44 42 48 50 56 58 58 62 62 58 59 58 57 54 54 63 62 60 53 55 56 56 54 58 57 57 73 78 86 95 93 92 95 
62 50 49 44 45 45 45 49 42 43 46 51 51 44 44 42 45 48 47 43 47 44 47 45 43 44 43 44 43 48 46 46 48 49 47 45 53 47 47 51 50 47 44 46 46 47 48 43 45 47 52 57 58 58 59 57 56 60 59 58 55 58 62 59 58 57 57 52 56 56 58 62 61 71 69 73 75 73 71 82 
50 40 43 42 39 38 42 47 45 44 48 46 45 45 43 44 45 45 47 48 47 45 43 45 41 45 44 45 44 44 43 48 46 49 52 50 53 50 50 47 48 48 44 49 43 43 46 48 45 49 56 55 59 59 59 55 57 55 58 60 57 58 63 54 58 54 58 55 53 55 57 59 57 59 59 59 66 60 67 74 
49 38 44 40 36 43 44 44 42 46 48 49 48 42 44 45 48 48 45 48 46 47 46 42 45 44 40 41 46 44 47 47 50 45 49 49 50 48 52 50 55 53 50 47 49 42 46 44 46 50 54 58 56 62 59 59 58 61 61 63 66 61 63 59 60 56 56 59 61 58 58 60 55 58 58 57 62 61 63 73 
44 41 40 40 38 41 46 43 45 44 48 43 44 41 43 41 44 43 48 47 46 45 46 45 44 46 42 46 42 43 45 44 49 48 52 46 49 49 50 49 56 52 49 46 50 46 47 43 47 44 52 55 60 59 56 56 56 59 58 57 59 54 59 54 56 56 59 58 62 59 55 58 58 56 60 59 63 65 63 63 
43 37 38 39 38 40 44 50 44 45 48 45 45 44 42 47 43 48 48 46 47 45 47 46 45 48 45 45 48 50 48 47 53 54 56 53 51 50 50 54 57 54 55 49 48 48 49 45 44 44 52 58 58 63 59 56 57 61 60 56 56 52 61 57 58 55 61 55 53 56 57 60 59 64 62 65 67 63 62 62 
38 41 39 43 38 44 46 49 45 49 49 50 47 41 45 45 45 47 45 46 47 46 45 45 45 46 47 44 47 45 47 47 53 52 50 54 54 52 48 54 52 47 46 48 48 46 46 40 44 46 55 58 58 61 60 59 55 59 60 59 55 54 59 55 57 57 57 56 52 58 58 58 55 61 57 59 60 63 57 62 
44 40 45 43 40 46 45 46 46 47 50 51 48 42 45 49 48 50 46 44 48 48 51 46 49 48 44 49 47 50 50 47 50 53 51 55 54 53 49 56 51 51 49 48 46 43 49 47 47 46 55 62 62 61 57 58 60 59 60 54 56 52 60 60 56 54 60 56 56 55 59 59 61 58 61 58 64 61 62 62 
39 46 41 39 45 44 49 47 50 50 48 51 50 47 47 47 46 44 48 48 47 47 48 42 45 47 50 46 49 47 48 51 49 54 53 53 55 51 55 55 52 48 45 54 55 51 50 48 50 53 56 59 55 59 59 57 56 60 61 60 57 55 59 56 59 58 59 58 58 60 60 58 58 60 61 60 65 61 65 61 
48 43 49 49 47 50 54 55 54 54 55 52 54 49 47 45 46 49 50 46 50 46 51 49 49 46 48 54 53 52 52 53 59 60 59 58 57 56 59 58 60 57 54 54 56 57 60 57 57 55 57 62 61 62 61 61 64 64 64 63 63 60 64 63 60 60 64 63 63 63 65 63 62 63 66 63 65 67 60 65 
51 43 45 47 48 48 50 54 54 56 57 57 54 49 51 53 48 50 51 48 49 53 51 50 51 51 52 49 57 55 58 56 58 57 61 64 62 61 60 60 60 56 58 58 58 60 53 53 57 53 59 62 63 66 62 60 60 68 67 64 63 62 65 63 60 62 64 59 62 68 64 63 61 63 61 56 67 67 62 67 


